<?xml version="1.0" encoding="UTF-8"?>
<!DOCTYPE svg PUBLIC "-//W3C//DTD SVG 1.1//EN" "http://www.w3.org/Graphics/SVG/1.1/DTD/svg11.dtd">
<!-- Creator: CorelDRAW 2018 (64 Bit) -->
<svg xmlns="http://www.w3.org/2000/svg" xml:space="preserve" width="62px" height="60px" version="1.1" style="shape-rendering:geometricPrecision; text-rendering:geometricPrecision; image-rendering:optimizeQuality; fill-rule:evenodd; clip-rule:evenodd"
viewBox="0 0 62 60"
 xmlns:xlink="http://www.w3.org/1999/xlink">
 <defs>
  <style type="text/css">
   <![CDATA[
    .fil0 {fill:black}
   ]]>
  </style>
 </defs>
 <g id="Camada_x0020_1">
  <metadata id="CorelCorpID_0Corel-Layer"/>
  <g id="_2518275166112">
   <g>
    <g>
     <path class="fil0" d="M29.61 20.5c-4.76,0 -8.63,3.87 -8.63,8.63 0,4.76 3.87,8.64 8.63,8.64 4.76,0 8.63,-3.88 8.63,-8.64 0,-4.76 -3.87,-8.63 -8.63,-8.63zm0 16.55c-4.37,0 -7.91,-3.55 -7.91,-7.92 0,-4.36 3.54,-7.91 7.91,-7.91 4.36,0 7.92,3.55 7.92,7.91 0,4.37 -3.56,7.92 -7.92,7.92z"/>
     <path class="fil0" d="M50.92 40.67l-1.23 -1.07c-1.98,-1.72 -6.11,-5.29 -6.21,-5.39 -0.2,-0.18 -0.45,-0.28 -0.68,-0.28 -0.23,0 -0.43,0.09 -0.57,0.25 -0.1,0.1 -0.31,0.36 -0.6,0.69l-0.01 0c-0.51,-0.43 -0.91,-0.77 -1.17,-0.99 0.66,-1.51 1,-3.11 1,-4.75 0,-6.53 -5.31,-11.84 -11.84,-11.84 -6.53,0 -11.84,5.31 -11.84,11.84 0,6.53 5.31,11.84 11.84,11.84 2.77,0 5.45,-0.97 7.58,-2.75 0.24,0.2 0.54,0.45 0.89,0.76 -0.3,0.33 -0.59,0.67 -0.62,0.7 -0.17,0.16 -0.26,0.35 -0.26,0.54 0,0.22 0.1,0.43 0.3,0.63 0.02,0.01 0.05,0.05 7.46,6.44l0.13 0.11c0.12,0.11 0.31,0.17 0.5,0.17 0.2,0 0.37,-0.06 0.48,-0.18 0.16,-0.15 4.72,-5.39 4.93,-5.65 0.29,-0.36 0.26,-0.78 -0.08,-1.07zm-0.48 0.62c-0.17,0.21 -4.45,5.13 -4.85,5.57 -0.02,0 -0.03,-0.01 -0.05,-0.01l-0.11 -0.1c-4.64,-4 -7.35,-6.35 -7.42,-6.41 -0.06,-0.05 -0.08,-0.09 -0.09,-0.1 0.01,-0.01 0.02,-0.02 0.03,-0.04 0.05,-0.04 0.87,-0.99 0.91,-1.03 0.06,-0.07 0.09,-0.16 0.08,-0.26 0,-0.1 -0.05,-0.18 -0.12,-0.25 -0.61,-0.52 -1.09,-0.93 -1.4,-1.19 -0.13,-0.12 -0.33,-0.12 -0.47,0 -2.04,1.8 -4.64,2.79 -7.34,2.79 -6.13,0 -11.13,-4.99 -11.13,-11.13 0,-6.13 5,-11.12 11.13,-11.12 6.13,0 11.12,4.99 11.12,11.12 0,1.63 -0.35,3.21 -1.05,4.7 -0.06,0.15 -0.03,0.32 0.1,0.43 0.26,0.21 0.84,0.7 1.65,1.39 0.15,0.13 0.37,0.11 0.5,-0.04l0.24 -0.27c0.28,-0.33 0.5,-0.58 0.6,-0.69 0,0 0.01,0 0.03,0 0.02,0 0.09,0 0.18,0.09 0.03,0.02 0.97,0.84 6.24,5.4l1.23 1.07c0.02,0.01 0.03,0.02 0.03,0.02 0,0.01 -0.01,0.03 -0.04,0.06z"/>
     <path class="fil0" d="M24.68 25.19c0.12,-0.16 0.08,-0.39 -0.08,-0.51 -0.16,-0.11 -0.38,-0.08 -0.5,0.08 -0.03,0.05 -3.51,4.87 0.58,8.97 0.07,0.07 0.16,0.11 0.26,0.11 0.09,0 0.18,-0.04 0.25,-0.11 0.14,-0.14 0.14,-0.37 0,-0.51 -3.66,-3.65 -0.64,-7.86 -0.51,-8.03z"/>
     <path class="fil0" d="M45.77 44.65l-6.22 -5.02c-0.15,-0.12 -0.38,-0.1 -0.5,0.05 -0.13,0.16 -0.1,0.38 0.05,0.51l6.22 5.01c0.06,0.06 0.14,0.08 0.22,0.08 0.11,0 0.21,-0.04 0.28,-0.13 0.12,-0.15 0.1,-0.38 -0.05,-0.5z"/>
    </g>
   </g>
   <g>
   </g>
   <g>
   </g>
   <g>
   </g>
   <g>
   </g>
   <g>
   </g>
   <g>
   </g>
   <g>
   </g>
   <g>
   </g>
   <g>
   </g>
   <g>
   </g>
   <g>
   </g>
   <g>
   </g>
   <g>
   </g>
   <g>
   </g>
   <g>
   </g>
  </g>
 </g>
</svg>
